<?xml version="1.0" standalone="no"?><!DOCTYPE svg PUBLIC "-//W3C//DTD SVG 1.1//EN" "http://www.w3.org/Graphics/SVG/1.1/DTD/svg11.dtd"><svg t="1590374070760" class="icon" viewBox="0 0 1024 1024" version="1.1" xmlns="http://www.w3.org/2000/svg" p-id="2254" xmlns:xlink="http://www.w3.org/1999/xlink" width="200" height="200"><defs><style type="text/css"></style></defs><path d="M468.52096 682.9568c-13.00992 0-25.2928-5.05856-34.688-14.45376-0.72192-0.72192-0.72192-1.44384-1.44384-1.44384L256.78336 450.98496c-7.94624-9.3952-6.5024-23.84896 3.61472-31.7952 9.39008-7.94624 23.84896-6.5024 31.7952 3.61472l174.16192 214.6304c1.44384 1.43872 2.88768 1.43872 5.05856-0.72704l307.57376-306.57024a22.05696 22.05696 0 0 1 31.80032-0.72192 22.05184 22.05184 0 0 1 0.72192 31.7952l-308.29568 307.29216c-9.40032 9.39008-21.68832 14.45376-34.69312 14.45376z" p-id="2255" fill="#ffffff"></path></svg>